<!DOCTYPE svg PUBLIC "-//W3C//DTD SVG 1.1//EN" "http://www.w3.org/Graphics/SVG/1.1/DTD/svg11.dtd">
<!-- Uploaded to: SVG Repo, www.svgrepo.com, Transformed by: SVG Repo Mixer Tools -->
<svg version="1.1" id="Layer_1" xmlns="http://www.w3.org/2000/svg" xmlns:xlink="http://www.w3.org/1999/xlink" viewBox="0 0 512 512" xml:space="preserve" width="64px" height="64px" fill="#000000">
<g id="SVGRepo_bgCarrier" stroke-width="0"/>
<g id="SVGRepo_tracerCarrier" stroke-linecap="round" stroke-linejoin="round"/>
<g id="SVGRepo_iconCarrier"> <path style="fill:#FBAC50;" d="M293.726,512l-10.117-31.875c38.005-12.064,63.539-46.982,63.539-86.89 c0-50.258-40.889-91.147-91.148-91.147s-91.148,40.889-91.148,91.147c0,39.908,25.534,74.827,63.539,86.89L218.274,512 c-25.027-7.944-46.574-23.329-62.311-44.494c-16.062-21.602-24.552-47.284-24.552-74.271c0-68.699,55.891-124.59,124.591-124.59 s124.591,55.891,124.591,124.59c0,26.987-8.49,52.67-24.552,74.271C340.301,488.671,318.754,504.056,293.726,512z"/> <path style="fill:#F78750;" d="M293.726,512l-10.117-31.875c38.005-12.064,63.539-46.982,63.539-86.89 c0-50.258-40.889-91.147-91.148-91.147c0,0.009,0-33.434,0-33.442c68.7,0,124.591,55.891,124.591,124.59 c0,26.987-8.49,52.67-24.552,74.271C340.301,488.671,318.754,504.056,293.726,512z"/> <polygon style="fill:#FD387E;" points="422.097,118.188 363.963,0 148.037,0 89.903,118.188 256,295.408 "/> <polygon style="fill:#FF648D;" points="181.862,118.188 330.14,118.188 330.14,118.188 301.521,0 210.48,0 "/> <g> <polygon style="fill:#BB2A5C;" points="256,295.408 422.097,118.188 330.14,118.188 "/> <polygon style="fill:#BB2A5C;" points="89.903,118.188 256,295.408 181.862,118.188 "/> </g> <rect x="142.454" y="268.643" style="fill:#FBAC50;" width="227.096" height="33.442"/> <rect x="256.002" y="268.643" style="fill:#F78750;" width="113.548" height="33.442"/> </g>
</svg>